<?xml version="1.0" standalone="no"?>
<!DOCTYPE svg PUBLIC "-//W3C//DTD SVG 20010904//EN"
 "http://www.w3.org/TR/2001/REC-SVG-20010904/DTD/svg10.dtd">
<svg version="1.0" xmlns="http://www.w3.org/2000/svg"
 width="480.000000pt" height="480.000000pt" viewBox="0 0 480.000000 480.000000"
 preserveAspectRatio="xMidYMid meet">
<metadata>
Created by potrace 1.11, written by Peter Selinger 2001-2013
</metadata>
<g transform="translate(0.000000,480.000000) scale(0.100000,-0.100000)"
fill="#000000" stroke="none">
<path d="M2250 4794 c-349 -30 -618 -102 -905 -244 -488 -240 -855 -607 -1095
-1095 -169 -343 -244 -667 -244 -1055 0 -388 75 -712 244 -1055 240 -488 607
-855 1095 -1095 343 -169 667 -244 1055 -244 388 0 712 75 1055 244 488 240
853 604 1095 1095 169 341 244 666 244 1055 0 388 -75 712 -244 1055 -240 488
-607 855 -1095 1095 -238 117 -467 188 -730 225 -101 15 -392 26 -475 19z
m-855 -1149 c33 -9 73 -25 90 -35 16 -10 229 -218 473 -462 l442 -443 444 445
c266 266 461 454 486 467 65 35 145 48 217 35 124 -20 212 -87 267 -202 l31
-65 0 -985 0 -985 -27 -57 c-37 -79 -98 -142 -177 -181 -58 -28 -75 -32 -146
-32 -66 1 -90 5 -140 28 -65 30 -123 81 -161 140 -51 79 -54 112 -54 646 l0
496 -370 -375 -370 -375 -370 375 -370 375 0 -496 c0 -534 -3 -567 -54 -646
-38 -59 -96 -110 -161 -140 -50 -23 -74 -27 -140 -28 -71 0 -88 4 -146 32 -79
39 -140 102 -177 181 l-27 57 0 985 0 985 31 65 c49 102 124 167 224 194 72
19 113 19 185 1z"/>
</g>
</svg>
