<?xml version="1.0" encoding="UTF-8"?>
<svg width="14px" height="10px" viewBox="0 0 14 10" version="1.1" xmlns="http://www.w3.org/2000/svg" xmlns:xlink="http://www.w3.org/1999/xlink">
    <!-- Generator: Sketch 51.2 (57519) - http://www.bohemiancoding.com/sketch -->
    <title>Shape Copy 6</title>
    <desc>Created with Sketch.</desc>
    <defs></defs>
    <g id="footer" stroke="none" stroke-width="1" fill="none" fill-rule="evenodd">
        <g id="Footer-+-CTA" transform="translate(-603.000000, -753.000000)" fill="#FFFFFF" fill-rule="nonzero" stroke="#FFFFFF" stroke-width="0.3">
            <g id="Products" transform="translate(453.000000, 576.000000)">
                <g id="pricing" transform="translate(25.000000, 171.000000)">
                    <path d="M135.241243,9.07451526 C135.327908,9.15637709 135.441682,9.19751791 135.555457,9.19751791 C135.669231,9.19751791 135.783006,9.15637709 135.86967,9.07451526 C136.043443,8.91037179 136.043443,8.64505549 135.86967,8.48091202 L132.314658,5.1228977 C132.27377,5.0838559 132.224438,5.05321019 132.169773,5.03180017 C132.061332,4.98939994 131.938668,4.98939994 131.830227,5.03180017 C131.775562,5.05321019 131.726674,5.0838559 131.685342,5.1228977 L128.13033,8.48091202 C127.956557,8.64505549 127.956557,8.91037179 128.13033,9.07451526 C128.216994,9.15637709 128.330769,9.19751791 128.444543,9.19751791 C128.558318,9.19751791 128.672092,9.15637709 128.758757,9.07451526 L131.555568,6.43268701 L131.555568,16.5555679 C131.555568,16.801021 131.754547,17 132,17 L132,17 C132.245453,17 132.444432,16.801021 132.444432,16.5555679 L132.444432,6.43268701 L135.241243,9.07451526 Z" id="Shape-Copy-6" transform="translate(132.000000, 11.000000) rotate(-270.000000) translate(-132.000000, -11.000000) "></path>
                </g>
            </g>
        </g>
    </g>
</svg>