<?xml version="1.0" encoding="UTF-8"?>
<svg width="19px" height="19px" viewBox="0 0 19 19" version="1.1" xmlns="http://www.w3.org/2000/svg" xmlns:xlink="http://www.w3.org/1999/xlink">
    <!-- Generator: Sketch 51.2 (57519) - http://www.bohemiancoding.com/sketch -->
    <title>aws_sizing_ixon</title>
    <desc>Created with Sketch.</desc>
    <defs></defs>
    <g id="footer" stroke="none" stroke-width="1" fill="none" fill-rule="evenodd">
        <g id="Footer-+-CTA" transform="translate(-735.000000, -647.000000)">
            <g id="use-cases" transform="translate(735.000000, 576.000000)">
                <g id="aws" transform="translate(0.000000, 66.000000)">
                    <g id="aws_sizing_ixon">
                        <g id="Group-11" opacity="0.7"></g>
                        <path d="M4.6,6 L17,6 C17.5522847,6 18,6.44771525 18,7 L18,19.4 C18,19.9522847 17.5522847,20.4 17,20.4 L4.6,20.4 C4.04771525,20.4 3.6,19.9522847 3.6,19.4 L3.6,7 C3.6,6.44771525 4.04771525,6 4.6,6 Z" id="Rectangle-6-Copy" stroke="#FFFFFF" stroke-width="1.4" stroke-linecap="round" stroke-linejoin="round" stroke-dasharray="4" fill-rule="nonzero"></path>
                        <path d="M5.72727273,18.2727273 L12.6,11.4" id="Line-5" stroke="#FFFFFF" stroke-width="1.4" stroke-linecap="square" fill-rule="nonzero"></path>
                        <rect id="Rectangle-6" stroke="#FFFFFF" stroke-width="1.4" fill="#FAFBFC" fill-rule="nonzero" x="0.7" y="16.6" width="6.7" height="6.7" rx="1"></rect>
                        <polyline id="Path-8" stroke="#FFFFFF" stroke-width="1.4" stroke-linecap="round" stroke-linejoin="round" fill-rule="nonzero" transform="translate(11.700000, 12.300000) rotate(-270.000000) translate(-11.700000, -12.300000) " points="9.9 14.1 9.9 10.5 13.5 10.5"></polyline>
                    </g>
                </g>
            </g>
        </g>
    </g>
</svg>