<svg xmlns="http://www.w3.org/2000/svg">
	<symbol viewBox="0 0 12 7" id="arrow-blue">
		<path d="m207 50 5.057432 5 4.942568-5" fill="none" stroke="#2d516c" stroke-linecap="round" stroke-linejoin="round" stroke-width="1.5" transform="translate(-206 -49)"/>
	</symbol>
	<symbol viewBox="0 0 11 7" id="arrow-blue_light">
		<path d="m98 23 4.551688 5 4.448312-5" fill="none" stroke="#439bc3" stroke-linecap="round" stroke-linejoin="round" stroke-width="1.5" transform="translate(-97 -22)"/>
	</symbol>
	<symbol id="facebook" viewBox="0 0 25 25">
		<g fill="none" fill-rule="nonzero" transform="translate(1 1)"><path d="m13.1038801 7.65939653c-.8487535 0-1.0130784.40334314-1.0130784.9952716v1.30515863h2.0242447l-.000717 2.04432224h-2.0235277v5.245851h-2.11136691v-5.245851h-1.76514908v-2.04432224h1.76514908v-1.5074875c0-1.74961289 1.06876971-2.70233926 2.62955821-2.70233926l1.5775198.00250969-.0001195 1.9064088z" fill="#fff" opacity=".68"/><circle cx="11.5" cy="11.5" opacity=".7" r="11.5" stroke="#fff"/></g>
	</symbol>
	<symbol id="info" viewBox="0 0 17 17">
		<g fill="none" fill-rule="evenodd" transform="translate(1 1)"><circle cx="7.5" cy="7.5" fill="#fff" fill-rule="nonzero" r="7.5" stroke="#439bc3" stroke-width=".7"/><path d="m7.30371094 9.07324219v-.3125c0-.35807471.06510351-.65592329.1953125-.89355469.13020898-.2376314.35807129-.48339717.68359375-.73730469.38737173-.30599111.63720647-.54361894.74951172-.71289062s.16845703-.37109258.16845703-.60546875c0-.27343887-.09114492-.48339771-.2734375-.62988282-.18229258-.1464851-.44433423-.21972656-.78613282-.21972656-.30924633 0-.5957018.04394488-.859375.13183594-.26367319.08789106-.52083208.19368428-.77148437.31738281l-.41015625-.859375c.6608106-.36784038 1.36881133-.55175781 2.12402344-.55175781.63802402 0 1.14420385.15624844 1.51855468.46875.37435088.31250156.56152348.74381235.56152348 1.29394531 0 .24414185-.035807.46142483-.1074219.65185547-.071615.19043064-.17984955.37190669-.32470704.5444336-.1448575.1725269-.39469224.39713403-.74951172.67382812-.30273589.2376314-.50537058.43456953-.60791016.59082031-.10253957.15625078-.15380859.36620962-.15380859.62988281v.21972657zm-.20019532 1.55761721c0-.4915389.23925542-.73730471.71777344-.73730471.23437617 0 .41341084.06428972.53710938.19287111.12369853.1285814.18554687.3100574.18554687.5444336 0 .2311209-.06266213.4142246-.18798828.5493164s-.30354702.2026367-.53466797.2026367c-.23112094 0-.40852802-.0659173-.53222656-.1977539s-.18554688-.3165678-.18554688-.5541992z" fill="#439bc3"/></g>
	</symbol>
	<symbol id="linkedIn" viewBox="0 0 24 25">
		<g fill="none" fill-rule="nonzero" opacity=".7"><g fill="#fff" transform="translate(7.892857 6.75)"><path d="m1.18989362 0c-.65755319 0-1.18978724.53319149-1.18989362 1.18925532 0 .65670213.53223404 1.18978723 1.19 1.18978723.65595745 0 1.18893617-.5330851 1.18893617-1.18978723 0-.65617021-.53308511-1.18925532-1.18904255-1.18925532z"/><path d="m0 3.125h2.051809v6.601489h-2.051809z"/><path d="m7.06170213 3.125c-.99808511 0-1.66734043.54723404-1.9412766 1.06617021h-.02744681v-.90202127h-1.96787234-.00010638v6.60138297h2.05v-3.26574468c0-.86095744.16393617-1.69489361 1.23138298-1.69489361 1.05212766 0 1.06617021.98468085 1.06617021 1.75010638v3.21042553h2.05031915v-3.62085106c0-1.77734043-.38351064-3.14457447-2.46117021-3.14457447z"/></g><circle cx="12" cy="12.5" r="11.5" stroke="#fff"/></g>
	</symbol>
	<symbol id="search" viewBox="0 0 16 17">
		<path d="m15.5567347 14.9032955-3.8942101-4.0501738c1.0012698-1.19026456 1.5498715-2.68786093 1.5498715-4.24692367 0-3.64260015-2.9635979-6.60619803-6.60619807-6.60619803-3.64260015 0-6.60619803 2.96359788-6.60619803 6.60619803 0 3.64260017 2.96359788 6.60619807 6.60619803 6.60619807 1.367483 0 2.67062737-.4124566 3.78477707-1.1954346l3.9237944 4.080907c.164006.170325.3845956.2642479.6209826.2642479.223749 0 .436009-.0853061.5971428-.2404082.3423734-.3294482.353288-.875752.0238398-1.2184127zm-8.95053667-13.17993949c2.69245654 0 4.88284207 2.19038549 4.88284207 4.88284202 0 2.69245654-2.19038553 4.88284207-4.88284207 4.88284207-2.69245653 0-4.88284202-2.19038553-4.88284202-4.88284207 0-2.69245653 2.19038549-4.88284202 4.88284202-4.88284202z"  transform=""/>
	</symbol>
	<symbol id="settings" viewBox="0 0 17 18">
		<g fill="none"><g fill="#627d91" stroke="#627d91" stroke-width=".2" transform="translate(1 1)"><path d="m8.82765073 7.70663123c1.06158662.25149224 1.82952187 1.20676276 1.82952187 2.31582197 0 1.1098384-.76865682 2.0638418-1.82952187 2.3157742v3.1860969c0 .3047087-.24435573.5490645-.54906445.5490645-.30470873 0-.54906445-.2443558-.54906445-.5490645v-3.1860969c-1.06086505-.2519324-1.82952183-1.2059358-1.82952183-2.3157742s.76865678-2.0638418 1.82952183-2.31577417v-7.25761458c0-.30470873.24435572-.54906445.54906445-.54906445.30470872 0 .54906445.24435572.54906445.54906445zm-.54906445 3.59627937c.70651789 0 1.28045738-.5739395 1.28045738-1.2804574 0-.70651786-.57393949-1.28045736-1.28045738-1.28045736s-1.28045738.5739395-1.28045738 1.28045736c0 .7065179.57393949 1.2804574 1.28045738 1.2804574z"/><path d="m2.82765073 3.94118403c1.06146661.25190585 1.82952183 1.20320213 1.82952183 2.31245422 0 1.10983842-.76865678 2.06384183-1.82952183 2.31577419v6.95491186c0 .3047087-.24435573.5490645-.54906445.5490645-.30470873 0-.54906445-.2443558-.54906445-.5490645v-6.95158545c-1.06086505-.25193237-1.82952183-1.20593577-1.82952183-2.31577419s.76865678-2.06384182 1.82952183-2.31577419v-3.49212602c0-.30470873.24435572-.54906445.54906445-.54906445.30470872 0 .54906445.24435572.54906445.54906445zm-.54906445 3.59623801c.70437713 0 1.28045738-.57512331 1.28045738-1.28045738 0-.70651789-.57393949-1.28045738-1.28045738-1.28045738s-1.28045738.57393949-1.28045738 1.28045738c0 .70651788.57393949 1.28045738 1.28045738 1.28045738z"/><path d="m13.8276507 3.94112954c1.0632423.25153952 1.8295219 1.20187979 1.8295219 2.31250871 0 1.10983842-.7686568 2.06384183-1.8295219 2.31577419v6.95823826c0 .3047088-.2443557.5490645-.5490644.5490645s-.5490645-.2443557-.5490645-.5490645v-6.95491185c-1.060865-.25193237-1.8295218-1.20593577-1.8295218-2.31577419s.7686568-2.06384182 1.8295218-2.31577419v-3.49212602c0-.30470873.2443558-.54906445.5490645-.54906445s.5490644.24435572.5490644.54906445zm-.5490644 3.5962925c.7065179 0 1.2804574-.5739395 1.2804574-1.28045738 0-.70651789-.5739395-1.28045738-1.2804574-1.28045738s-1.2804574.57393949-1.2804574 1.28045738c0 .70651788.5739395 1.28045738 1.2804574 1.28045738z"/></g></g>
	</symbol>
	<symbol id="share" viewBox="0 0 16 16">
		<g fill="#fff" stroke="#fff" stroke-width=".6" transform="translate(1 1)"><path d="m13.6354167 0h-3.6348674c-.2013753 0-.36458333.16320799-.36458333.36458333 0 .20137535.16320803.36458334.36458333.36458334h2.7602946l-7.09157307 7.1595052c-.13600668.14398195-.13230386.36999514.00826008.50941975.14056397.13942466.36671957.14099123.50941978.00384523l7.08388261-7.15138754v2.74890138c0 .20137531.163208.36458334.3645834.36458334.2013753 0 .3645833-.16320803.3645833-.36458334v-3.63486736c0-.20137534-.163208-.36458333-.3645833-.36458333z"/><path d="m11.8174845 7.82002769c-.2013753 0-.3645833.16320799-.3645833.36458333v3.99247228c-.0007121.6038412-.4899088 1.093038-1.09375 1.09375h-8.53623453c-.60384115-.000712-1.09303794-.4899088-1.09375-1.09375v-8.53623451c.00071206-.60384115.48990885-1.09303794 1.09375-1.09375h3.99247231c.20137534 0 .36458333-.16320799.36458333-.36458334 0-.2013753-.16320799-.36458333-.36458333-.36458333h-3.99247231c-1.00630695.00113932-1.82177735.81660972-1.82291667 1.82291667v8.53623451c.00113932 1.006307.81660972 1.8217774 1.82291667 1.8229167h8.53623453c1.006307-.0011393 1.8217774-.8166097 1.8229167-1.8229167v-3.99247228c0-.20137534-.163208-.36458333-.3645834-.36458333z"/></g>
	</symbol>
	<symbol id="triangle-blue" viewBox="0 0 8 8">
		<path d="m80 27v8h-8z" fill="#439bc3" transform="translate(-72 -27)"/>
	</symbol>
	<symbol viewBox="0 0 25 25" id="twitter" >
		<g fill="none" fill-rule="nonzero" transform="translate(1 1)"><path d="m17.2384891 9.17064853c-.014134-.01665785-.037455-.02231143-.0573434-.01322532-.2946926.13073892-.6047307.22472961-.9240567.2802558.3390126-.25501663.5916063-.60816317.7211337-1.01310049.0062593-.01938369-.0002019-.04058459-.0160521-.05320418-.0159512-.01261959-.0380607-.0142349-.0555262-.00383636-.3818182.22644588-.7953369.38605843-1.2296526.47459745-.3848469-.3993847-.9222395-.62784972-1.4784099-.62784972-1.1311189 0-2.0512382.92011937-2.0512382 2.05113729 0 .1367963.0132253.2722802.039474.4038268-1.566646-.0967165-3.03152776-.84884394-4.02756657-2.07052097-.01019662-.01251863-.025643-.01948465-.04179607-.01786934-.01605212.00121148-.03038797.01029759-.0384645.02412865-.18172206.31175429-.27773189.66843431-.27773189 1.03127269 0 .62885927.28570747 1.21683107.7722178 1.60480767-.25047357-.0300851-.49509165-.1089322-.71568204-.2313927-.01484064-.0083794-.03331571-.0082785-.04815635.0003029-.01484063.0084803-.02422961.0242296-.02463343.0413922l-.00020192.0262487c0 .9031587.59513975 1.6961736 1.44186359 1.9594686-.22301335.0359406-.4544061.0335177-.68186155-.0098937-.01675881-.0031297-.03432528.0026249-.04583434.0155473-.01140811.0129225-.01524446.0309937-.00999472.0473487.25390611.7925101.95939153 1.3482767 1.78057329 1.417533-.68499118.5018558-1.49466391.7662614-2.35017099.7662614-.15759341 0-.31629734-.009389-.47177066-.0276622-.02221047-.0025239-.04421903.0107015-.05189174.0320033-.00767271.0215038.00050478.0455315.01968656.0577472.92577294.5937264 1.99621683.9073989 3.09573623.9073989 3.5965825 0 5.7457487-2.921485 5.7457487-5.7458497 0-.0786452-.0015144-.1568867-.004644-.2349262.3879766-.28378928.7210327-.63118129.9895776-1.03329182.0120138-.0179703.0107014-.04189703-.0033316-.05865585z" fill="#fff" opacity=".62"/><circle cx="11.5" cy="11.5" opacity=".7" r="11.5" stroke="#fff"/></g>
	</symbol>
	<symbol id="reset"  viewBox="0 0 9 10"> 
		<g fill="none" stroke-linecap="round" stroke-linejoin="round" stroke-width="1.5" transform="translate(1 1)"><path d="m0 0 3.48962793 3.8333335 3.41037237-3.8333335"/><path d="m0 4 3.48962793 3.8333335 3.41037237-3.8333335" transform="matrix(1 0 0 -1 0 11.833334)"/></g>
	</symbol>
	<symbol height="9" viewBox="0 0 6 9" width="6" id="arrows">
		<g fill="#627d91" stroke="#627d91" transform="translate(2 1)"><path d="m1.2 7-1.2-1.71428571h2.4z"/><path d="m1.2 1.71428571-1.2-1.71428571h2.4z" transform="matrix(1 0 0 -1 0 1.714286)"/></g>
	</symbol>
	<symbol id="pin" height="14" viewBox="0 0 14 14" width="14">
		<path d="m11.9854576 4.82202161c-.0153962-.07449057-.0672453-.1365283-.1378868-.16460377-1.94128298-.77343397-3.66181128-.15056604-4.15720751.06520754l-3.36883019-2.86596226c.11773585-1.03426415-.44015094-1.74158491-.4650566-1.77237736-.0405283-.05003773-.10007547-.08060377-.16415094-.08422641-.06384906-.00135849-.12701887.02060377-.17230189.0661132l-3.45373585 3.45373585c-.04573585.04550944-.06973585.10845283-.06588679.17320755.00362264.06430189.03464151.12430189.08513207.16437736.62830189.49856604 1.43750944.49064151 1.74928302.46528302l2.88022642 3.3855849c-.1965283.50490566-.79698113 2.32528307-.06950944 4.15177357.02807548.0708679.0898868.1224906.16460378.1378868.01516981.0031698.03056604.0047547.04573585.0047547.05954717 0 .11728302-.0235471.16007547-.0663396l3.29886792-3.29886792 3.07245288 3.07245282c.0441509.044151.1021132.0663396.1600754.0663396.0579623 0 .1159246-.0221886.1600755-.0663396.0885283-.0885283.0885283-.2316226 0-.3201509l-3.07245283-3.07245286 3.28913203-3.28935849c.0536604-.0538868.0767548-.13132076.0613585-.20603774z"  transform="matrix(-1 0 0 1 13 1)"/>
	</symbol>
	<symbol viewBox="0 0 8 11" id="arrows">
		<g fill="#627d91" stroke="#627d91" transform="translate(2 1)"><path d="m1.2 7-1.2-1.71428571h2.4z"/><path d="m1.2 1.71428571-1.2-1.71428571h2.4z" transform="matrix(1 0 0 -1 0 1.714286)"/></g>
	</symbol>
	<symbol viewBox="0 0 13 13" id="restore">
		<path d="m12.62277 9.03145181c-.077032-.23709104-.3316747-.36670563-.5688018-.28981807l-.5870035.19072015c.3595911-.74366775.5479277-1.56144225.5479277-2.39651555 0-3.03682388-2.47058622-5.50744618-5.50744621-5.50744618-3.03682389 0-5.50744619 2.4706223-5.50744619 5.50744618 0 3.03682389 2.4706223 5.50744616 5.50744619 5.50744616.24929771 0 .45143001-.2021323.45143001-.45143 0-.2492616-.2021323-.45143-.45143001-.45143-2.53898687 0-4.60458616-2.06556318-4.60458616-4.60458616 0-2.53898686 2.06559929-4.60458615 4.60458616-4.60458615 2.53902297 0 4.60458611 2.06559929 4.60458611 4.60458615 0 .69960818-.157856 1.3845178-.4594835 2.00680505l-.2005433-.6174118c-.077032-.23705493-.3317468-.36677786-.56880177-.28981807-.23712716.07706813-.36692232.33174689-.2898903.56883793l.53232627 1.63843815c.0619362.1907924.2388968.3121007.4292197.3121007.0461903 0 .0932473-.0071507.1395821-.0221743l1.6384743-.53225403c.237091-.07706813.3668862-.33171077.2898542-.56891016z" fill="#b5c2cb" stroke="#b5c2cb" stroke-width=".2" transform=""/>
	</symbol>
</svg>