<?xml version="1.0" encoding="UTF-8"?>
<svg width="16px" height="20px" viewBox="0 0 16 20" version="1.1" xmlns="http://www.w3.org/2000/svg" xmlns:xlink="http://www.w3.org/1999/xlink">
    <!-- Generator: Sketch 51.2 (57519) - http://www.bohemiancoding.com/sketch -->
    <title>icon_aws</title>
    <desc>Created with Sketch.</desc>
    <defs></defs>
    <g id="footer" stroke="none" stroke-width="1" fill="none" fill-rule="evenodd">
        <g id="Footer-+-CTA" transform="translate(-479.000000, -648.000000)">
            <g id="Products" transform="translate(453.000000, 576.000000)">
                <g id="aws" transform="translate(0.000000, 66.000000)">
                    <g id="icon_aws" transform="translate(26.000000, 0.000000)">
                        <g id="Group-3-Copy" opacity="0.7">
                            <g id="Group-2" transform="translate(11.205534, 12.699605)"></g>
                        </g>
                        <rect id="Rectangle-11" stroke="#FFFFFF" stroke-width="1.4" fill-rule="nonzero" x="0.7" y="6.7" width="13.5407115" height="16.5288538" rx="2"></rect>
                        <polygon id="Path-9" fill="#113B58" fill-rule="nonzero" points="14.671997 25.7189736 11.2055336 24.724197 11.2055336 18.6996047 16.0412015 18.6996047 15.4448903 26.2926342"></polygon>
                        <path d="M13.5814437,19.7485438 C13.5814437,19.5800395 13.7218639,19.4466403 13.8903682,19.4466403 C14.0588725,19.4466403 14.1922717,19.5800395 14.1922717,19.7485438 L14.1922717,19.903006 C14.6065113,19.9521531 14.9575619,20.0855523 15.2805284,20.2891616 C15.3928646,20.3523507 15.4911587,20.4576659 15.4911587,20.6261702 C15.4911587,20.8438215 15.3156335,21.0123258 15.0979821,21.0123258 C15.027772,21.0123258 14.9575619,20.9912627 14.8873518,20.9491367 C14.6416164,20.8016954 14.402902,20.6963803 14.1641876,20.6402122 L14.1641876,21.9882463 C15.2313813,22.2550447 15.687747,22.6833264 15.687747,23.4345746 C15.687747,24.2068858 15.0839401,24.7194196 14.1922717,24.8036717 L14.1922717,25.2249324 C14.1922717,25.3934367 14.0588725,25.5268359 13.8903682,25.5268359 C13.7218639,25.5268359 13.5814437,25.3934367 13.5814437,25.2249324 L13.5814437,24.7896297 C13.0548679,24.7334616 12.5704181,24.5438943 12.1421365,24.2419908 C12.0227793,24.1647597 11.9525692,24.0524235 11.9525692,23.9049823 C11.9525692,23.687331 12.1210734,23.5188267 12.3387248,23.5188267 C12.4229769,23.5188267 12.507229,23.5469108 12.5704181,23.5960578 C12.9004057,23.8347722 13.2233722,23.9962555 13.6095278,24.0664656 L13.6095278,22.6833264 C12.5844602,22.416528 12.1070314,22.0303724 12.1070314,21.2369981 C12.1070314,20.4857499 12.7038173,19.9661951 13.5814437,19.895985 L13.5814437,19.7485438 Z M14.8592677,23.4837217 C14.8592677,23.1747972 14.7048055,22.9852299 14.1641876,22.8167256 L14.1641876,24.0945496 C14.6135323,24.0454025 14.8592677,23.8207302 14.8592677,23.4837217 Z M12.9355107,21.1878511 C12.9355107,21.4827335 13.0689099,21.6652798 13.6095278,21.8408051 L13.6095278,20.5980861 C13.1601831,20.6402122 12.9355107,20.8789266 12.9355107,21.1878511 Z" id="$" fill="#FFFFFF"></path>
                        <path d="M4.10869565,10.8557312 L10.8320158,10.8557312" id="Line-7" stroke="#FFFFFF" stroke-width="1.4" stroke-linecap="round" fill-rule="nonzero"></path>
                        <path d="M4.10869565,14.4673913 L10.8320158,14.4673913" id="Line-7-Copy" stroke="#FFFFFF" stroke-width="1.4" stroke-linecap="round" fill-rule="nonzero"></path>
                        <path d="M4.10869565,18.2025692 L10.8320158,18.2025692" id="Line-7-Copy-2" stroke="#FFFFFF" stroke-width="1.4" stroke-linecap="round" fill-rule="nonzero"></path>
                    </g>
                </g>
            </g>
        </g>
    </g>
</svg>