<?xml version="1.0" encoding="UTF-8"?>
<svg width="18px" height="18px" viewBox="0 0 18 18" version="1.1" xmlns="http://www.w3.org/2000/svg" xmlns:xlink="http://www.w3.org/1999/xlink">
    <!-- Generator: Sketch 51.2 (57519) - http://www.bohemiancoding.com/sketch -->
    <title>icon_monitoring</title>
    <desc>Created with Sketch.</desc>
    <defs></defs>
    <g id="footer" stroke="none" stroke-width="1" fill="none" fill-rule="evenodd">
        <g id="Footer-+-CTA" transform="translate(-478.000000, -681.000000)">
            <g id="Products" transform="translate(453.000000, 576.000000)">
                <g id="monitoring" transform="translate(25.000000, 100.000000)">
                    <g id="icon_monitoring" transform="translate(1.000000, 0.000000)">
                        <g id="Group-20" opacity="0.7">
                            <g id="Group-19"></g>
                        </g>
                        <rect id="Rectangle-14" stroke="#FFFFFF" stroke-width="1.4" fill="#113B58" fill-rule="nonzero" transform="translate(11.865801, 17.865801) rotate(-45.000000) translate(-11.865801, -17.865801) " x="10.6453057" y="12.1908009" width="2.44099026" height="11.35" rx="1.22049513"></rect>
                        <circle id="Oval-2" stroke="#FFFFFF" stroke-width="1.4" fill="#113B58" fill-rule="nonzero" cx="6" cy="12" r="6"></circle>
                        <path d="M2.88358606,11.8278411 L5.76776106,13.931749" id="Line-8" stroke="#FFFFFF" stroke-width="0.6" stroke-linecap="square" fill-rule="nonzero"></path>
                        <path d="M2.94043224,11.5109817 C2.44713349,12.3542021 2.07298386,13.017922 1.81798337,13.5021413" id="Path-10" stroke="#FFFFFF" stroke-width="0.6" stroke-linecap="round" fill-rule="nonzero" transform="translate(2.379208, 12.506562) rotate(-345.000000) translate(-2.379208, -12.506562) "></path>
                        <path d="M5.82357599,13.908407 L8.64167263,10.4418456" id="Line-9" stroke="#FFFFFF" stroke-width="0.6" stroke-linecap="square" fill-rule="nonzero"></path>
                        <circle id="Oval-3" stroke="#FFFFFF" stroke-width="0.6" fill="#113B58" fill-rule="nonzero" cx="2.91" cy="11.79" r="1"></circle>
                        <circle id="Oval-3-Copy" stroke="#FFFFFF" stroke-width="0.6" fill="#113B58" fill-rule="nonzero" cx="5.79" cy="13.95" r="1"></circle>
                        <path d="M8.67,11.1 C9.08421356,11.1 9.42,10.7642136 9.42,10.35 C9.42,9.93578644 9.08421356,9.6 8.67,9.6 C8.25578644,9.6 7.92,9.93578644 7.92,10.35 C7.92,10.7642136 8.25578644,11.1 8.67,11.1 Z" id="Oval-3-Copy-2" stroke="#FFFFFF" stroke-width="0.6" fill="#113B58" fill-rule="nonzero"></path>
                    </g>
                </g>
            </g>
        </g>
    </g>
</svg>