<svg xmlns="http://www.w3.org/2000/svg" height="14" viewBox="0 0 14 14" width="14">
		<path d="m11.9854576 4.82202161c-.0153962-.07449057-.0672453-.1365283-.1378868-.16460377-1.94128298-.77343397-3.66181128-.15056604-4.15720751.06520754l-3.36883019-2.86596226c.11773585-1.03426415-.44015094-1.74158491-.4650566-1.77237736-.0405283-.05003773-.10007547-.08060377-.16415094-.08422641-.06384906-.00135849-.12701887.02060377-.17230189.0661132l-3.45373585 3.45373585c-.04573585.04550944-.06973585.10845283-.06588679.17320755.00362264.06430189.03464151.12430189.08513207.16437736.62830189.49856604 1.43750944.49064151 1.74928302.46528302l2.88022642 3.3855849c-.1965283.50490566-.79698113 2.32528307-.06950944 4.15177357.02807548.0708679.0898868.1224906.16460378.1378868.01516981.0031698.03056604.0047547.04573585.0047547.05954717 0 .11728302-.0235471.16007547-.0663396l3.29886792-3.29886792 3.07245288 3.07245282c.0441509.044151.1021132.0663396.1600754.0663396.0579623 0 .1159246-.0221886.1600755-.0663396.0885283-.0885283.0885283-.2316226 0-.3201509l-3.07245283-3.07245286 3.28913203-3.28935849c.0536604-.0538868.0767548-.13132076.0613585-.20603774z"  fill= "#fff"
                    stroke= "#39a4d5"  transform="matrix(-1 0 0 1 13 1)"/>
</svg>