<?xml version="1.0" standalone="no"?>
<!DOCTYPE svg PUBLIC "-//W3C//DTD SVG 20010904//EN"
 "http://www.w3.org/TR/2001/REC-SVG-20010904/DTD/svg10.dtd">
<svg version="1.0" xmlns="http://www.w3.org/2000/svg"
 width="480.000000pt" height="480.000000pt" viewBox="0 0 480.000000 480.000000"
 preserveAspectRatio="xMidYMid meet">
<metadata>
Created by potrace 1.11, written by Peter Selinger 2001-2013
</metadata>
<g transform="translate(0.000000,480.000000) scale(0.100000,-0.100000)"
fill="#000000" stroke="none">
<path d="M2209 4796 c-2 -2 -35 -7 -74 -10 -62 -6 -235 -35 -290 -49 -184 -46
-316 -93 -480 -171 -648 -309 -1123 -893 -1295 -1589 -31 -126 -33 -137 -57
-317 -16 -114 -8 -499 11 -610 3 -14 7 -42 10 -62 28 -185 111 -440 210 -643
361 -738 1076 -1241 1893 -1332 140 -16 522 -8 624 12 13 3 38 7 54 9 209 29
538 147 760 272 185 105 326 210 488 364 364 347 624 835 703 1319 3 18 7 43
9 54 27 138 27 557 1 707 -3 14 -7 42 -10 62 -28 186 -141 527 -224 678 -5 8
-24 42 -42 75 -18 33 -41 72 -51 87 -11 14 -19 31 -19 37 0 6 -4 11 -10 11 -5
0 -10 5 -10 10 0 22 -173 242 -272 345 -164 172 -382 341 -573 445 -33 18 -67
37 -75 42 -95 52 -430 177 -518 193 -18 3 -63 12 -100 20 -38 7 -90 17 -118
20 -27 4 -60 9 -74 12 -29 6 -465 14 -471 9z"/>
</g>
</svg>
