<?xml version="1.0" encoding="UTF-8"?>
<svg width="30px" height="30px" viewBox="0 0 30 30" version="1.1" xmlns="http://www.w3.org/2000/svg" xmlns:xlink="http://www.w3.org/1999/xlink">
    <!-- Generator: Sketch 51.2 (57519) - http://www.bohemiancoding.com/sketch -->
    <title>twitter</title>
    <desc>Created with Sketch.</desc>
    <defs></defs>
    <g id="footer" stroke="none" stroke-width="1" fill="none" fill-rule="evenodd">
        <g id="Footer-+-CTA" transform="translate(-146.000000, -806.000000)">
            <g id="social" transform="translate(63.000000, 807.000000)">
                <g id="twitter" transform="translate(84.000000, 0.000000)">
                    <g id="Group-3">
                        <path d="M20.9859867,11.1642678 C20.9687802,11.1439887 20.9403894,11.137106 20.9161773,11.1481674 C20.5574211,11.3073278 20.1799835,11.4217513 19.7912388,11.4893484 C20.2039498,11.1788933 20.5114551,10.7489758 20.6691407,10.2560086 C20.6767607,10.2324111 20.6688949,10.2066013 20.649599,10.1912383 C20.6301802,10.1758754 20.6032642,10.1739089 20.5820019,10.186568 C20.1171797,10.4622412 19.6137657,10.6565521 19.0850335,10.7643388 C18.6165242,10.2781313 17.9623072,10 17.2852301,10 C15.9082158,10 14.7880705,11.1201453 14.7880705,12.4970367 C14.7880705,12.6635713 14.8041709,12.8285083 14.8361259,12.9886519 C12.9289046,12.8709101 11.1455704,11.9552767 9.93300138,10.4680177 C9.92058809,10.4527776 9.90178381,10.4442973 9.8821192,10.4462637 C9.8625775,10.4477386 9.84512516,10.4587999 9.83529285,10.4756377 C9.61406599,10.8551647 9.49718447,11.2893839 9.49718447,11.7311001 C9.49718447,12.496668 9.84500225,13.2124598 10.4372757,13.6847791 C10.1323514,13.6481538 9.83455543,13.5521659 9.56601061,13.4030836 C9.54794375,13.3928825 9.52545235,13.3930054 9.50738549,13.4034523 C9.48931863,13.4137762 9.47788857,13.4329492 9.47739696,13.4538428 L9.47715115,13.4857978 C9.47715115,14.5852953 10.2016691,15.5507047 11.2324633,15.8712378 C10.9609688,15.9149916 10.6792733,15.9120419 10.402371,15.8591933 C10.381969,15.8553833 10.3605837,15.8623888 10.3465727,15.8781205 C10.3326846,15.8938521 10.3280142,15.9158519 10.3344052,15.9357623 C10.6435083,16.9005572 11.5023601,17.5771427 12.5020597,17.6614547 C11.6681574,18.2724096 10.6824688,18.5942946 9.64098193,18.5942946 C9.44912908,18.5942946 9.2559243,18.5828646 9.06665243,18.560619 C9.03961359,18.5575464 9.01282056,18.5736468 9.00347987,18.5995795 C8.99413918,18.625758 9.00409439,18.6550091 9.02744612,18.6698805 C10.154474,19.3926778 11.4576231,19.7745399 12.7961685,19.7745399 C17.1746167,19.7745399 19.790993,16.2179495 19.790993,12.7795925 C19.790993,12.6838505 19.7891494,12.5886 19.7853394,12.4935954 C20.2576587,12.1481128 20.6631184,11.7252008 20.9900425,11.2356749 C21.0046681,11.213798 21.0030703,11.1846698 20.9859867,11.1642678 Z" id="Shape" fill="#FFFFFF" fill-rule="nonzero" ></path>
                        <circle id="Oval-8-Copy-2" stroke="#FFFFFF" opacity="0.7" fill-rule="nonzero" cx="14" cy="14" r="14"></circle>
                    </g>
                </g>
            </g>
        </g>
    </g>
</svg>